<svg xmlns="http://www.w3.org/2000/svg" viewBox="0 0 500 500"><g id="freepik--background-complete--inject-74"><g><g><g><path d="M443.92,312.896h-180.746c-3.232,0-5.862-2.63-5.862-5.862V43.76c0-3.232,2.63-5.862,5.862-5.862h180.746c3.232,0,5.862,2.629,5.862,5.862V307.033c0,3.233-2.63,5.862-5.862,5.862ZM263.174,38.148c-3.095,0-5.612,2.518-5.612,5.612V307.033c0,3.095,2.518,5.612,5.612,5.612h180.746c3.095,0,5.612-2.518,5.612-5.612V43.76c0-3.094-2.518-5.612-5.612-5.612h-180.746Z" style="fill:#e0e0e0;"></path><path d="M235.493,312.896H54.746c-3.232,0-5.862-2.63-5.862-5.862V43.76c0-3.232,2.629-5.862,5.862-5.862H235.493c3.232,0,5.862,2.629,5.862,5.862V307.033c0,3.233-2.63,5.862-5.862,5.862ZM54.746,38.148c-3.094,0-5.612,2.518-5.612,5.612V307.033c0,3.095,2.518,5.612,5.612,5.612H235.493c3.095,0,5.612-2.518,5.612-5.612V43.76c0-3.094-2.518-5.612-5.612-5.612H54.746Z" style="fill:#e0e0e0;"></path></g><rect x="0" y="373.965" width="500" height=".25" style="fill:#e0e0e0;"></rect></g><rect x="51.672" y="388.23" width="16.06" height=".25" style="fill:#e0e0e0;"></rect><rect x="170.352" y="385.52" width="53.53" height=".25" style="fill:#e0e0e0;"></rect><rect x="68.732" y="397.52" width="36.25" height=".25" style="fill:#e0e0e0;"></rect><rect x="378.352" y="385.39" width="43.19" height=".25" style="fill:#e0e0e0;"></rect><rect x="430.452" y="385.39" width="6.33" height=".25" style="fill:#e0e0e0;"></rect><rect x="316.212" y="391.62" width="53.89" height=".25" style="fill:#e0e0e0;"></rect></g><g><g><path d="M104.555,326.326c-.03-.945-3.211-94.832-18.483-109.682-14.853-14.439-31.901-.537-32.617,.061l-1.531-1.835c.193-.163,19.432-15.867,35.816,.061,15.957,15.517,19.079,107.415,19.203,111.32l-2.388,.075Z" style="fill:#e0e0e0;"></path><path d="M105.866,344.777c-.11-1.122-10.437-112.711,30.315-159.48l1.802,1.568c-40.076,45.994-29.845,156.568-29.738,157.679l-2.378,.234Z" style="fill:#e0e0e0;"></path><path d="M104.359,332.974l-2.385-.159c.084-1.265,7.976-126.861-21.917-154.355l1.618-1.76c30.73,28.266,23.027,151.059,22.684,156.273Z" style="fill:#e0e0e0;"></path><path d="M108.25,332.904l-2.39-.019c.029-3.459,.986-84.834,24.101-98.081,5.138-2.948,10.17-3.439,14.956-1.459,13.977,5.781,20.903,30.657,21.192,31.712l-2.306,.63c-.068-.248-6.907-24.803-19.802-30.134-4.065-1.678-8.387-1.235-12.851,1.323-21.934,12.57-22.892,95.194-22.899,96.027Z" style="fill:#e0e0e0;"></path><path d="M99.249,332.962l-2.385-.135c.036-.642,3.486-64.306-13.695-86.737-4.163-5.433-8.682-8.024-13.457-7.691-11.257,.787-20.698,17.261-20.792,17.427l-2.082-1.176c.41-.724,10.163-17.756,22.703-18.634,5.61-.399,10.84,2.507,15.524,8.623,17.721,23.134,14.335,85.675,14.182,88.324Z" style="fill:#e0e0e0;"></path><path d="M103.016,341.621c-.468-6.176-11.232-151.542,7.708-177.157l1.921,1.419c-18.415,24.908-7.358,174.053-7.245,175.556l-2.383,.182Z" style="fill:#e0e0e0;"></path></g><path d="M150.068,248.078s-11.362,4.188-7.984,14.077c3.378,9.889,39.305,26.164,39.305,26.164,0,0,15.047-13.792,1.229-36.221-13.819-22.43-32.243-11.096-32.55-4.019Z" style="fill:#ebebeb;"></path><path d="M100.675,229.254s12.099-.507,12.787,9.921c.687,10.427-26.211,39.274-26.211,39.274,0,0-19.195-6.94-15.073-32.96,4.123-26.02,25.49-22.649,28.496-16.235Z" style="fill:#ebebeb;"></path><path d="M90.432,179.341s8.066-.866,7.417-5.779c-.649-4.914-31.357-17.559-49.474,2.889,0,0,11.601,19.927,28.371,20.188,16.77,.261,13.687-17.298,13.687-17.298Z" style="fill:#ebebeb;"></path><path d="M105.463,167.409s-7.304,3.532-9.351-.982c-2.047-4.513,17.325-31.486,43.517-23.714,0,0,.694,23.048-13.401,32.138-14.094,9.091-20.765-7.442-20.765-7.442Z" style="fill:#ebebeb;"></path><path d="M67.272,244.103s5.567-4.495-.441-6.689c-6.008-2.194-35.487-1.571-35.794,27.631,0,0,34.334,5.705,38.584-5.418,4.25-11.123-2.349-15.524-2.349-15.524Z" style="fill:#ebebeb;"></path><path d="M137.285,178.609s-5.567-4.495,.441-6.689c6.008-2.194,35.487-1.571,35.794,27.631,0,0-34.334,5.706-38.584-5.418-4.25-11.123,2.348-15.524,2.348-15.524Z" style="fill:#ebebeb;"></path><path d="M119.134,202.132s-.49-5.464,3.921-3.322c4.411,2.142,19.779,18.721,3.849,34.454,0,0-21.444-15.882-17.579-24.152,3.865-8.27,9.808-6.979,9.808-6.979Z" style="fill:#ebebeb;"></path><path d="M62.295,209.918s3.328-4.361-1.545-4.901c-4.874-.541-26.716,5.289-21.629,27.094,0,0,26.609-2,27.749-11.058,1.141-9.058-4.575-11.135-4.575-11.135Z" style="fill:#ebebeb;"></path><polygon points="130.619 375.023 76.947 375.023 62.671 309.174 143.54 309.174 130.619 375.023" style="fill:#f0f0f0;"></polygon><rect x="57.802" y="308.221" width="90.396" height="18.936" style="fill:#e6e6e6;"></rect></g><g><rect x="322.308" y="47.954" width="108.326" height="138.984" style="fill:#e6e6e6;"></rect><rect x="298.072" y="47.954" width="127.247" height="138.984" style="fill:#f0f0f0;"></rect><rect x="309.804" y="60.298" width="103.23" height="114.294" style="fill:#fff;"></rect><rect x="343.713" y="96.817" width="37.264" height="41.257" style="fill:#f0f0f0;"></rect></g></g><g id="freepik--Shadow--inject-74"><ellipse cx="250.599" cy="435.988" rx="223.432" ry="12.388" style="fill:#f5f5f5;"></ellipse></g><g id="freepik--Computer--inject-74"><g><rect x="115.863" y="82.466" width="269.13" height="226.166" style="fill:#407BFF;"></rect><rect x="145.185" y="113.735" width="209.546" height="162.591" style="fill:#263238;"></rect><rect x="183.13" y="308.632" width="139.595" height="22.58" style="fill:#407BFF;"></rect><rect x="165.937" y="331.211" width="173.98" height="14.261" style="fill:#407BFF;"></rect><rect x="108.324" y="345.472" width="283.268" height="76.082" style="fill:#407BFF;"></rect><path d="M229.295,372.858H117.227v-15.315h112.068v15.315Zm-111.318-.75h110.568v-13.815H117.977v13.815Z" style="fill:#263238;"></path><rect x="210.194" y="376.698" width="18.726" height="6.521" rx="3.048" ry="3.048" style="opacity:.4;"></rect><circle cx="202.11" cy="379.958" r="2.967" style="fill:#fff; opacity:.4;"></circle><rect x="295.269" y="362.049" width="89.297" height="6.304" style="opacity:.4;"></rect><rect x="367.827" y="373.72" width="16.739" height="5.955" style="fill:#fff; opacity:.4;"></rect><path d="M346.864,405.611c0,1.424-1.155,2.579-2.579,2.579s-2.579-1.155-2.579-2.579,1.155-2.579,2.579-2.579,2.579,1.155,2.579,2.579Z" style="opacity:.4;"></path><path d="M353.838,405.611c0,1.424-1.155,2.579-2.579,2.579s-2.579-1.155-2.579-2.579,1.155-2.579,2.579-2.579,2.579,1.155,2.579,2.579Z" style="opacity:.4;"></path><path d="M360.812,405.611c0,1.424-1.155,2.579-2.579,2.579s-2.579-1.155-2.579-2.579,1.155-2.579,2.579-2.579,2.579,1.155,2.579,2.579Z" style="opacity:.4;"></path><path d="M368.32,399.934c3.135-3.135,8.218-3.135,11.354,0,3.135,3.135,3.135,8.219,0,11.354-3.135,3.135-8.218,3.135-11.354,0-3.135-3.135-3.135-8.218,0-11.354Z" style="opacity:.4;"></path><rect x="165.937" y="331.211" width="173.98" height="14.261" style="opacity:.4;"></rect><rect x="119.417" y="397.537" width=".75" height="10.348" style="opacity:.4;"></rect><rect x="123.105" y="397.537" width=".75" height="10.348" style="opacity:.4;"></rect><rect x="126.794" y="397.537" width=".75" height="10.348" style="opacity:.4;"></rect><rect x="130.483" y="397.537" width=".75" height="10.348" style="opacity:.4;"></rect><rect x="134.171" y="397.537" width=".75" height="10.348" style="opacity:.4;"></rect><rect x="137.86" y="397.537" width=".75" height="10.348" style="opacity:.4;"></rect><rect x="141.549" y="397.537" width=".75" height="10.348" style="opacity:.4;"></rect><rect x="145.237" y="397.537" width=".75" height="10.348" style="opacity:.4;"></rect><rect x="148.926" y="397.537" width=".75" height="10.348" style="opacity:.4;"></rect><rect x="152.615" y="397.537" width=".75" height="10.348" style="opacity:.4;"></rect><rect x="156.303" y="397.537" width=".75" height="10.348" style="opacity:.4;"></rect><rect x="159.992" y="397.537" width=".75" height="10.348" style="opacity:.4;"></rect><rect x="163.681" y="397.537" width=".75" height="10.348" style="opacity:.4;"></rect><rect x="167.37" y="397.537" width=".75" height="10.348" style="opacity:.4;"></rect><rect x="171.058" y="397.537" width=".75" height="10.348" style="opacity:.4;"></rect><rect x="174.747" y="397.537" width=".75" height="10.348" style="opacity:.4;"></rect><rect x="178.436" y="397.537" width=".75" height="10.348" style="opacity:.4;"></rect><rect x="182.124" y="397.537" width=".75" height="10.348" style="opacity:.4;"></rect><rect x="185.813" y="397.537" width=".75" height="10.348" style="opacity:.4;"></rect><rect x="189.501" y="397.537" width=".75" height="10.348" style="opacity:.4;"></rect><rect x="193.19" y="397.537" width=".75" height="10.348" style="opacity:.4;"></rect><rect x="196.879" y="397.537" width=".75" height="10.348" style="opacity:.4;"></rect><rect x="200.567" y="397.537" width=".75" height="10.348" style="opacity:.4;"></rect><rect x="204.256" y="397.537" width=".75" height="10.348" style="opacity:.4;"></rect><rect x="207.945" y="397.537" width=".75" height="10.348" style="opacity:.4;"></rect><rect x="211.634" y="397.537" width=".75" height="10.348" style="opacity:.4;"></rect><rect x="215.322" y="397.537" width=".75" height="10.348" style="opacity:.4;"></rect><rect x="219.011" y="397.537" width=".75" height="10.348" style="opacity:.4;"></rect><rect x="222.7" y="397.537" width=".75" height="10.348" style="opacity:.4;"></rect><rect x="226.388" y="397.537" width=".75" height="10.348" style="opacity:.4;"></rect><rect x="230.077" y="397.537" width=".75" height="10.348" style="opacity:.4;"></rect><polygon points="183.13 308.632 322.724 308.632 322.724 316.241 183.175 315.954 183.13 308.632" style="opacity:.4;"></polygon><polygon points="145.185 276.325 137.286 282.329 362.63 282.329 354.731 276.325 145.185 276.325" style="opacity:.4;"></polygon><polygon points="354.731 113.735 362.63 106.23 137.286 106.23 145.185 113.735 354.731 113.735" style="opacity:.4;"></polygon><polygon points="354.731 276.325 362.63 282.329 362.63 106.23 354.731 113.735 354.731 276.325" style="fill:#fff; opacity:.4;"></polygon><polygon points="145.185 276.325 137.286 282.329 137.286 106.23 145.185 113.735 145.185 276.325" style="fill:#fff; opacity:.4;"></polygon><path d="M152.99,118.853c-.778,1.751-5.644,147.708,0,150.627,5.644,2.919,191.519,4.087,195.204,2.335s2.973-149.219-1.947-152.532c-5.742-3.867-193.258-.431-193.258-.431Z" style="fill:#fff; opacity:.2;"></path><path d="M384.938,368.728h-90.044v-6.862h90.115l-.071,6.862Zm-89.294-.75h88.552l.056-5.362h-88.607v5.362Z" style="fill:#263238;"></path><rect x="108.324" y="390.945" width="283.268" height=".75" style="opacity:.4;"></rect></g></g><g id="freepik--Documents--inject-74"><g><g><g><polygon points="192.642 181.957 164.979 181.957 164.979 149.031 187.441 149.031 192.642 154.454 192.642 181.957" style="fill:#fff;"></polygon><path d="M193.017,182.332h-28.412v-33.676h22.997l5.416,5.647v28.029Zm-27.662-.75h26.912v-26.977l-4.986-5.199h-21.926v32.176Z"></path></g><g><polygon points="187.251 149.031 187.251 154.4 192.642 154.454 187.251 149.031" style="fill:#fff;"></polygon><path d="M192.642,154.829h-.004l-5.391-.054c-.206-.002-.371-.169-.371-.375v-5.37c0-.152,.092-.289,.232-.347,.141-.057,.302-.026,.409,.083l5.391,5.423c.107,.108,.139,.27,.08,.41-.059,.139-.195,.229-.346,.229Zm-5.016-.8l4.105,.041-4.105-4.13v4.089Z"></path></g></g><g><rect x="170.567" y="157.383" width="16.487" height=".75"></rect><rect x="170.567" y="159.722" width="16.487" height=".75"></rect><rect x="170.567" y="162.061" width="9.635" height=".75"></rect><rect x="170.567" y="164.399" width="16.487" height=".75"></rect><rect x="170.567" y="166.738" width="16.487" height=".75"></rect><rect x="170.567" y="169.077" width="16.487" height=".75"></rect><rect x="170.567" y="171.415" width="16.487" height=".75"></rect><rect x="170.567" y="173.754" width="8.244" height=".75"></rect></g></g><g><g><g><polygon points="309.1 163.176 281.438 163.176 281.438 130.249 303.899 130.249 309.1 135.672 309.1 163.176" style="fill:#fff;"></polygon><path d="M309.475,163.55h-28.412v-33.676h22.997l5.415,5.647v28.029Zm-27.662-.75h26.912v-26.977l-4.985-5.199h-21.927v32.176Z"></path></g><g><polygon points="303.709 130.249 303.709 135.619 309.1 135.672 303.709 130.249" style="fill:#fff;"></polygon><path d="M309.1,136.047h-.004l-5.391-.053c-.205-.002-.371-.169-.371-.375v-5.37c0-.152,.092-.289,.232-.347,.141-.057,.303-.025,.408,.083l5.391,5.423c.107,.108,.139,.27,.08,.41-.059,.139-.195,.229-.346,.229Zm-5.016-.799l4.105,.041-4.105-4.13v4.089Z"></path></g></g><g><rect x="287.025" y="138.602" width="16.487" height=".75"></rect><rect x="287.025" y="140.94" width="16.487" height=".75"></rect><rect x="287.025" y="143.279" width="9.635" height=".75"></rect><rect x="287.025" y="145.618" width="16.487" height=".75"></rect><rect x="287.025" y="147.957" width="16.487" height=".75"></rect><rect x="287.025" y="150.295" width="16.487" height=".75"></rect><rect x="287.025" y="152.634" width="16.487" height=".75"></rect><rect x="287.025" y="154.972" width="8.243" height=".75"></rect></g></g><g><g><g><polygon points="327.278 242.033 299.616 242.033 299.616 209.107 322.077 209.107 327.278 214.53 327.278 242.033" style="fill:#fff;"></polygon><path d="M327.653,242.408h-28.413v-33.676h22.997l5.416,5.647v28.029Zm-27.663-.75h26.913v-26.977l-4.986-5.199h-21.927v32.176Z"></path></g><g><polygon points="321.887 209.107 321.887 214.476 327.278 214.53 321.887 209.107" style="fill:#fff;"></polygon><path d="M327.278,214.905h-.004l-5.391-.054c-.205-.002-.371-.169-.371-.375v-5.37c0-.152,.092-.289,.232-.347,.141-.057,.302-.025,.408,.083l5.391,5.423c.107,.108,.139,.27,.08,.41-.059,.139-.195,.229-.346,.229Zm-5.016-.8l4.105,.041-4.105-4.13v4.089Z"></path></g></g><g><rect x="305.203" y="217.459" width="16.487" height=".75"></rect><rect x="305.203" y="219.797" width="16.487" height=".75"></rect><rect x="305.203" y="222.136" width="9.635" height=".75"></rect><rect x="305.203" y="224.475" width="16.487" height=".75"></rect><rect x="305.203" y="226.813" width="16.487" height=".75"></rect><rect x="305.203" y="229.152" width="16.487" height=".75"></rect><rect x="305.203" y="231.491" width="16.487" height=".75"></rect><rect x="305.203" y="233.829" width="8.244" height=".75"></rect></g></g><g><g><g><polygon points="341.227 256.877 313.565 256.877 313.565 223.951 336.027 223.951 341.227 229.374 341.227 256.877" style="fill:#fff;"></polygon><path d="M341.603,257.252h-28.412v-33.676h22.997l5.415,5.647v28.029Zm-27.662-.75h26.912v-26.977l-4.985-5.199h-21.927v32.176Z"></path></g><g><polygon points="335.837 223.951 335.837 229.32 341.227 229.374 335.837 223.951" style="fill:#fff;"></polygon><path d="M341.228,229.749h-.004l-5.391-.054c-.205-.002-.371-.169-.371-.375v-5.37c0-.152,.092-.289,.232-.347,.141-.057,.303-.025,.408,.083l5.391,5.423c.107,.108,.139,.27,.08,.41-.059,.139-.195,.229-.346,.229Zm-5.016-.8l4.105,.041-4.105-4.13v4.089Z"></path></g></g><g><rect x="319.152" y="232.303" width="16.487" height=".75"></rect><rect x="319.152" y="234.642" width="16.487" height=".75"></rect><rect x="319.152" y="236.98" width="9.635" height=".75"></rect><rect x="319.152" y="239.319" width="16.487" height=".75"></rect><rect x="319.152" y="241.658" width="16.487" height=".75"></rect><rect x="319.152" y="243.996" width="16.487" height=".75"></rect><rect x="319.152" y="246.335" width="16.487" height=".75"></rect><rect x="319.152" y="248.674" width="8.244" height=".75"></rect></g></g><g><g><g><polygon points="273.843 259.216 246.18 259.216 246.18 226.289 268.642 226.289 273.843 231.712 273.843 259.216" style="fill:#fff;"></polygon><path d="M274.218,259.591h-28.412v-33.676h22.997l5.415,5.647v28.029Zm-27.662-.75h26.912v-26.978l-4.985-5.199h-21.927v32.176Z"></path></g><g><polygon points="268.452 226.289 268.452 231.659 273.843 231.712 268.452 226.289" style="fill:#fff;"></polygon><path d="M273.843,232.087h-.004l-5.391-.053c-.205-.002-.371-.169-.371-.375v-5.37c0-.152,.092-.289,.232-.347,.141-.057,.303-.025,.408,.083l5.391,5.423c.107,.108,.139,.27,.08,.41-.059,.139-.195,.229-.346,.229Zm-5.016-.799l4.105,.041-4.105-4.13v4.089Z"></path></g></g><g><rect x="251.768" y="234.642" width="16.488" height=".75"></rect><rect x="251.768" y="236.98" width="16.488" height=".75"></rect><rect x="251.768" y="239.319" width="9.635" height=".75"></rect><rect x="251.768" y="241.658" width="16.488" height=".75"></rect><rect x="251.768" y="243.996" width="16.488" height=".75"></rect><rect x="251.768" y="246.335" width="16.488" height=".75"></rect><rect x="251.768" y="248.674" width="16.488" height=".75"></rect><rect x="251.768" y="251.012" width="8.244" height=".75"></rect></g></g></g><g id="freepik--Tab--inject-74"><g><rect x="182.297" y="168.797" width="145.064" height="53.503" style="fill:#407BFF;"></rect><rect x="182.297" y="168.797" width="145.064" height="53.503" style="fill:#fff; opacity:.7;"></rect><rect x="182.297" y="168.797" width="145.064" height="9.928" style="fill:#407BFF;"></rect><path d="M325.102,176.696h-7.95v-7.039h7.95v7.039Zm-7.2-.75h6.45v-5.539h-6.45v5.539Z"></path><g><rect x="318.533" y="172.853" width="5.083" height=".751" transform="translate(-28.354 278.093) rotate(-45.053)"></rect><rect x="320.806" y="170.61" width=".751" height="5.237" transform="translate(-25.244 287.922) rotate(-46.659)"></rect></g><g><rect x="190.278" y="196.927" width="3.453" height="10.568" style="fill:#407BFF;"></rect><g><path d="M321.636,209.344H188.022v-14.17h133.613v14.17Zm-132.863-.75h132.113v-12.67H188.772v12.67Z"></path><rect x="196.138" y="196.927" width="3.453" height="10.568" style="fill:#407BFF;"></rect><rect x="201.997" y="196.927" width="3.453" height="10.568" style="fill:#407BFF;"></rect><rect x="207.856" y="196.927" width="3.453" height="10.568" style="fill:#407BFF;"></rect><rect x="213.716" y="196.927" width="3.453" height="10.568" style="fill:#407BFF;"></rect><rect x="219.575" y="196.927" width="3.453" height="10.568" style="fill:#407BFF;"></rect><rect x="225.435" y="196.927" width="3.453" height="10.568" style="fill:#407BFF;"></rect><rect x="231.294" y="196.927" width="3.453" height="10.568" style="fill:#407BFF;"></rect><rect x="237.154" y="196.927" width="3.453" height="10.568" style="fill:#407BFF;"></rect><rect x="243.013" y="196.927" width="3.453" height="10.568" style="fill:#407BFF;"></rect><rect x="248.872" y="196.927" width="3.453" height="10.568" style="fill:#407BFF;"></rect><rect x="254.732" y="196.927" width="3.453" height="10.568" style="fill:#407BFF;"></rect><rect x="190.56" y="197.676" width="128.067" height=".75" style="fill:#fff;"></rect></g></g><polygon points="317.526 176.321 317.526 177.046 325.424 177.046 325.424 170.032 324.727 170.032 324.727 176.321 317.526 176.321" style="opacity:.3;"></polygon><polygon points="190.278 208.969 190.278 210.944 322.872 210.944 322.872 195.549 321.261 195.549 321.261 208.969 190.278 208.969" style="opacity:.3;"></polygon></g></g><g id="freepik--Mouse--inject-74"><g><path d="M414.061,421.256h14.573c7.601,0,13.772,6.171,13.772,13.772v.96h-42.118v-.96c0-7.601,6.171-13.772,13.772-13.772Z" style="fill:#407BFF;"></path><path d="M441.853,434.668h-40.919c-.207,0-.375-.168-.375-.375s.168-.375,.375-.375h40.919c.207,0,.375,.168,.375,.375s-.168,.375-.375,.375Z" style="opacity:.2;"></path></g></g><g id="freepik--Keyboard--inject-74"><g><rect x="46.822" y="413.89" width="19.372" height="6.621" style="fill:#407BFF;"></rect><rect x="46.822" y="413.89" width="19.372" height="6.621" style="opacity:.4;"></rect><rect x="70.876" y="413.89" width="13.501" height="6.621" style="fill:#407BFF;"></rect><rect x="70.876" y="413.89" width="13.501" height="6.621" style="opacity:.4;"></rect><rect x="89.116" y="413.89" width="13.501" height="6.621" style="fill:#407BFF;"></rect><rect x="89.116" y="413.89" width="13.501" height="6.621" style="opacity:.4;"></rect><rect x="107.356" y="413.89" width="13.501" height="6.621" style="fill:#407BFF;"></rect><rect x="107.356" y="413.89" width="13.501" height="6.621" style="opacity:.4;"></rect><rect x="197.462" y="413.89" width="10.374" height="6.621" style="fill:#407BFF;"></rect><rect x="197.462" y="413.89" width="10.374" height="6.621" style="opacity:.4;"></rect><rect x="212.812" y="413.89" width="10.374" height="6.621" style="fill:#407BFF;"></rect><rect x="212.812" y="413.89" width="10.374" height="6.621" style="opacity:.4;"></rect><rect x="228.162" y="413.89" width="10.374" height="6.621" style="fill:#407BFF;"></rect><rect x="228.162" y="413.89" width="10.374" height="6.621" style="opacity:.4;"></rect><rect x="243.511" y="413.89" width="10.374" height="6.621" style="fill:#407BFF;"></rect><rect x="243.511" y="413.89" width="10.374" height="6.621" style="opacity:.4;"></rect><rect x="285.103" y="413.89" width="10.374" height="6.621" style="fill:#407BFF;"></rect><rect x="285.103" y="413.89" width="10.374" height="6.621" style="opacity:.4;"></rect><rect x="300.234" y="413.89" width="10.374" height="6.621" style="fill:#407BFF;"></rect><rect x="300.234" y="413.89" width="10.374" height="6.621" style="opacity:.4;"></rect><rect x="315.365" y="413.89" width="10.374" height="6.621" style="fill:#407BFF;"></rect><rect x="315.365" y="413.89" width="10.374" height="6.621" style="opacity:.4;"></rect><rect x="330.496" y="413.89" width="28.056" height="6.621" style="fill:#407BFF;"></rect><rect x="330.496" y="413.89" width="28.056" height="6.621" style="opacity:.4;"></rect><rect x="258.861" y="413.89" width="20.202" height="6.621" style="fill:#407BFF;"></rect><rect x="258.861" y="413.89" width="20.202" height="6.621" style="opacity:.4;"></rect><rect x="125.596" y="413.89" width="66.398" height="6.621" style="fill:#407BFF;"></rect><rect x="125.596" y="413.89" width="66.398" height="6.621" style="opacity:.4;"></rect><rect x="41.677" y="419.257" width="322.218" height="13.702" style="fill:#407BFF;"></rect><rect x="41.677" y="419.257" width="322.218" height="13.702" style="opacity:.3;"></rect><rect x="42.778" y="428.247" width="320.38" height=".75" style="opacity:.2;"></rect></g></g></svg>
